<?xml version="1.0" standalone="no"?>
<!DOCTYPE svg PUBLIC "-//W3C//DTD SVG 20010904//EN"
 "http://www.w3.org/TR/2001/REC-SVG-20010904/DTD/svg10.dtd">
<svg version="1.0" xmlns="http://www.w3.org/2000/svg"
 width="1280.000000pt" height="640.000000pt" viewBox="0 0 1280.000000 640.000000"
 preserveAspectRatio="xMidYMid meet">
<metadata>
Created by potrace 1.15, written by Peter Selinger 2001-2017
</metadata>
<g transform="translate(0.000000,640.000000) scale(0.100000,-0.100000)"
fill="#000000" stroke="none">
<path d="M5328 6119 c-24 -13 -23 -43 6 -185 13 -66 27 -146 31 -179 11 -97
72 -367 94 -418 55 -128 86 -432 49 -474 -10 -11 -18 -27 -18 -35 0 -11 -14
-18 -44 -22 -25 -4 -56 -16 -70 -27 -33 -26 -53 -88 -37 -117 19 -35 13 -53
-50 -149 l-61 -92 4 -135 c3 -153 13 -178 81 -201 21 -7 63 -30 94 -52 30 -21
70 -47 89 -58 38 -22 50 -46 36 -72 -8 -13 -3 -31 19 -71 16 -30 29 -64 28
-76 0 -21 0 -21 -9 1 -7 16 -14 21 -27 16 -20 -7 -121 -81 -129 -95 -4 -5 8
-22 25 -36 l31 -27 -24 -65 c-13 -36 -27 -90 -31 -121 -6 -49 -4 -58 18 -85
32 -39 72 -104 81 -131 5 -15 -4 -48 -29 -105 -56 -129 -56 -143 1 -211 l47
-58 -6 -132 c-3 -73 -11 -146 -17 -162 -18 -45 -40 -201 -40 -281 0 -39 7 -94
15 -122 13 -44 22 -55 54 -72 52 -26 66 -65 85 -236 13 -105 14 -152 6 -193
-5 -29 -10 -108 -10 -175 0 -107 3 -127 24 -173 15 -32 34 -56 52 -65 35 -16
47 -56 40 -131 -6 -64 -17 -89 -53 -128 -13 -14 -27 -39 -32 -55 l-7 -29 -223
-8 c-196 -8 -225 -7 -240 7 -20 18 -92 21 -108 5 -12 -12 -150 -23 -400 -33
l-151 -6 -16 48 c-9 27 -32 63 -51 82 -35 34 -58 90 -69 167 -8 53 7 91 39
103 65 25 78 181 27 316 -46 122 -66 238 -66 394 -1 144 6 184 57 343 l31 97
-17 64 c-21 78 -21 128 -2 181 21 59 19 96 -5 102 -24 6 -34 35 -25 79 7 39
25 46 25 11 0 -27 23 -51 62 -66 23 -9 32 -7 57 14 16 14 36 25 44 25 19 0 25
17 51 150 15 76 25 105 36 105 23 0 40 45 40 107 0 53 2 59 30 73 41 21 49 40
37 87 -7 29 -6 66 6 141 9 56 21 154 27 217 9 90 16 125 36 159 31 55 30 68
-7 171 -18 49 -32 109 -33 140 -3 72 -32 176 -61 222 -16 24 -37 40 -62 48
-70 23 -150 69 -178 102 -41 48 -85 78 -116 78 -35 0 -43 23 -29 86 20 89 94
174 151 174 40 0 44 16 24 106 -17 79 -15 104 9 104 28 0 56 50 56 101 0 76
-42 107 -170 128 -94 15 -190 57 -190 82 0 40 -100 56 -120 19 -6 -11 -34 -35
-63 -53 -63 -41 -126 -104 -134 -135 -3 -13 0 -43 7 -67 11 -38 9 -57 -9 -140
-12 -52 -21 -99 -21 -104 0 -4 20 -22 45 -40 91 -65 111 -190 45 -286 -35 -51
-61 -65 -123 -65 -45 0 -82 -24 -208 -131 -80 -68 -119 -93 -130 -82 -11 11
-59 147 -59 167 0 7 7 19 16 27 12 10 14 23 9 60 -6 42 -4 49 14 61 28 17 29
94 2 146 -11 21 -27 64 -36 97 -24 82 -26 84 -81 73 -29 -7 -49 -7 -56 0 -5 5
-15 38 -23 74 -7 36 -27 109 -44 163 -17 55 -31 112 -31 128 0 15 -10 51 -21
78 -17 39 -20 55 -11 73 15 33 -2 46 -59 46 l-47 0 -57 176 c-58 175 -81 224
-103 210 -21 -13 -13 -51 33 -170 38 -99 58 -176 68 -261 1 -14 -8 -25 -30
-35 -18 -8 -33 -19 -33 -23 0 -4 16 -49 35 -99 20 -50 34 -93 32 -95 -2 -2
-23 -9 -47 -16 -47 -13 -67 -35 -57 -61 5 -12 20 -16 62 -16 31 0 72 -7 91
-15 20 -8 40 -13 44 -10 24 15 25 -59 5 -210 -8 -60 -14 -132 -14 -160 l1 -50
12 50 12 50 12 -47 c7 -26 12 -62 12 -80 0 -38 -48 -138 -66 -138 -20 0 -28
-56 -27 -187 2 -132 17 -213 57 -291 13 -27 46 -111 71 -188 l47 -139 -7 -133
-7 -133 42 -40 c22 -21 63 -50 89 -64 l48 -24 -10 -40 c-10 -36 -9 -41 12 -58
l22 -18 -35 -127 c-34 -124 -83 -345 -106 -478 -7 -35 -23 -83 -36 -106 -19
-32 -24 -55 -24 -105 0 -96 17 -193 41 -239 33 -63 22 -164 -31 -299 -23 -57
-50 -116 -60 -131 -14 -19 -17 -37 -13 -67 4 -30 -6 -82 -37 -194 l-42 -153
34 -28 c18 -15 36 -28 41 -28 15 0 6 -56 -17 -105 -31 -67 -96 -131 -143 -140
-46 -8 -88 -51 -103 -103 l-11 -42 -115 0 c-85 0 -123 4 -145 16 -26 13 -67
15 -249 13 -167 -2 -222 1 -234 10 -10 9 -26 11 -43 6 -49 -12 -221 -28 -238
-22 -33 13 -48 76 -53 222 l-4 141 78 29 c94 36 100 45 145 221 l29 117 -16
76 -16 76 31 68 c16 37 34 67 40 67 5 0 12 12 15 28 4 15 29 56 56 91 46 59
50 69 50 119 0 30 7 69 16 88 14 29 14 41 4 81 -14 58 -111 250 -155 307 -17
23 -44 63 -59 89 -44 75 -210 207 -260 207 -23 0 -71 29 -48 30 16 0 16 20 -1
20 -8 0 -24 11 -37 25 -23 25 -23 25 -4 47 19 21 19 21 -1 14 -46 -18 -56 -17
-94 13 -21 17 -44 31 -50 31 -22 0 -16 44 10 81 10 15 19 38 19 52 0 14 7 28
16 31 25 10 92 7 99 -4 10 -16 25 -12 25 6 0 10 -13 59 -30 109 -16 51 -35
135 -41 186 -14 110 -25 125 -132 177 -37 17 -72 42 -78 54 -16 30 -28 38 -60
38 -28 0 -59 -27 -59 -51 0 -10 -21 -22 -57 -33 -80 -25 -130 -52 -147 -79
-13 -22 -70 -271 -81 -357 -7 -56 1 -67 45 -72 30 -2 35 -7 38 -30 2 -20 15
-34 48 -53 28 -17 44 -33 44 -45 0 -11 -5 -20 -11 -20 -5 0 -15 -14 -21 -31
-10 -29 -13 -31 -47 -25 -20 3 -40 13 -46 22 -25 41 -43 57 -67 58 -19 1 -38
18 -79 73 -99 131 -306 358 -629 690 -177 180 -325 330 -330 331 -22 8 -6 -19
61 -104 39 -49 76 -95 82 -102 16 -21 -1 -27 -23 -7 -11 10 -20 13 -20 7 0
-11 45 -76 165 -237 90 -120 88 -115 64 -161 -18 -35 -20 -50 -15 -144 4 -58
10 -118 14 -135 7 -26 9 -27 16 -10 6 16 12 5 28 -50 20 -72 66 -135 97 -135
13 1 13 2 -2 11 -23 14 -44 57 -72 148 -13 42 -32 100 -44 129 -19 48 -20 55
-6 81 8 16 17 47 21 70 4 23 10 41 15 41 11 0 154 -158 238 -262 43 -54 75
-104 82 -130 6 -24 20 -70 30 -103 23 -76 69 -263 69 -282 0 -8 -9 -28 -21
-44 -11 -16 -24 -57 -29 -90 -8 -55 -13 -65 -58 -108 -70 -67 -86 -102 -86
-186 -1 -99 18 -222 43 -275 26 -58 10 -64 -53 -21 -120 83 -180 169 -210 301
-18 81 -43 344 -51 550 -4 85 -10 171 -14 190 -7 34 -8 32 -22 -35 -9 -48 -14
-133 -13 -265 0 -163 4 -212 23 -300 37 -171 129 -367 226 -481 l43 -50 -30
-77 c-37 -96 -37 -150 -3 -265 35 -122 57 -161 115 -204 28 -21 50 -41 50 -45
0 -13 91 -55 166 -76 42 -11 89 -33 116 -54 25 -19 66 -44 92 -54 l46 -19 0
-51 c0 -78 -24 -143 -77 -207 l-48 -58 -169 7 c-160 7 -172 8 -224 35 -67 36
-144 40 -177 9 -31 -29 -108 -40 -286 -40 l-159 0 0 -310 0 -310 6402 0 6401
0 -6 248 c-5 214 -9 256 -28 312 -24 75 -21 159 8 213 16 29 18 75 21 493 l3
461 -53 21 c-29 12 -71 25 -92 30 -22 4 -43 14 -47 22 -4 8 -14 53 -23 100
-30 168 -150 353 -288 446 -72 48 -73 50 -79 100 -4 28 -11 60 -18 72 -6 11
-11 28 -11 37 0 9 38 83 84 163 46 81 96 172 111 202 15 30 29 57 30 58 2 2
27 -15 56 -38 29 -23 65 -48 82 -56 65 -34 78 19 18 75 -62 58 -65 69 -36 155
14 41 25 97 25 125 0 53 17 81 51 81 14 0 19 7 19 28 0 26 15 48 125 177 34
41 39 54 40 98 0 64 -17 71 -40 15 -18 -45 -77 -131 -128 -185 -35 -37 -67
-42 -124 -18 -54 23 -63 20 -63 -20 0 -32 -3 -35 -28 -35 -16 0 -47 -13 -68
-28 -41 -30 -194 -230 -194 -254 0 -27 -13 -28 -47 -2 l-33 25 -43 -47 c-42
-46 -44 -47 -72 -33 -29 14 -30 18 -36 98 -8 104 -19 116 -131 146 -62 17 -82
26 -80 38 2 11 -9 17 -36 22 -39 6 -92 -7 -92 -24 0 -5 -36 -37 -80 -71 -43
-34 -88 -76 -99 -93 -20 -32 -20 -32 0 -53 17 -18 19 -26 10 -43 -16 -29 -41
-203 -41 -282 0 -71 5 -80 55 -96 22 -7 31 -17 33 -37 2 -15 1 -34 -2 -42 -5
-13 -9 -12 -31 2 -24 16 -25 15 -35 -12 -62 -164 -62 -164 -125 -209 -104 -75
-135 -123 -135 -215 0 -28 -5 -82 -11 -119 -11 -65 -11 -69 20 -128 l30 -61
-23 -15 c-13 -9 -31 -40 -43 -74 -11 -32 -30 -84 -42 -117 -12 -32 -20 -73
-19 -90 4 -33 9 -26 25 34 l10 35 32 -68 c33 -68 74 -107 114 -107 33 0 17
-19 -45 -52 -94 -49 -163 -122 -184 -194 -25 -86 -9 -124 76 -187 71 -53 140
-116 140 -129 0 -8 -59 -100 -81 -126 -11 -13 -43 -8 -66 10 -20 16 -16 85 5
93 16 6 16 7 -2 21 -19 13 -66 20 -66 9 0 -4 7 -20 16 -37 18 -35 23 -34 -58
-6 -36 12 -51 28 -28 28 7 0 7 6 0 19 -7 14 -6 21 3 24 22 8 -8 42 -40 45 -40
4 -73 -36 -73 -87 -1 -35 -1 -35 -16 -16 -9 11 -23 36 -31 55 -8 19 -21 39
-28 45 -7 5 -15 19 -17 30 -4 26 -22 22 -26 -5 -3 -18 -8 -20 -34 -15 -28 7
-29 6 -18 -15 6 -12 24 -29 39 -37 21 -13 27 -24 27 -50 0 -18 -5 -33 -10 -33
-6 0 -40 14 -75 30 -68 33 -87 34 -49 4 26 -21 68 -84 68 -102 0 -6 -7 -9 -16
-5 -9 3 -20 0 -25 -8 -6 -11 -15 -7 -40 16 -47 45 -116 145 -148 217 -35 76
-39 109 -51 398 -9 238 -42 481 -111 819 l-32 153 37 37 c36 35 38 35 52 17
10 -14 14 -48 14 -117 l0 -96 38 -47 c20 -25 43 -46 50 -46 7 0 32 9 57 21 32
15 47 29 54 52 6 18 15 120 21 227 6 107 17 224 25 260 24 108 20 147 -29 267
-24 59 -56 149 -71 198 -102 336 -213 581 -296 657 -25 23 -61 43 -95 53 -72
21 -177 121 -194 185 -8 30 -15 40 -26 36 -21 -8 -17 17 7 48 15 20 27 25 42
20 17 -5 19 -3 12 12 -5 11 -9 35 -9 54 -1 35 1 37 73 57 21 5 6 87 -40 216
l-40 112 -58 28 c-51 24 -71 27 -152 28 -161 0 -217 -30 -276 -148 -34 -68
-38 -87 -41 -164 -2 -48 1 -95 6 -105 6 -10 27 -23 49 -29 36 -11 38 -13 35
-49 -3 -34 -1 -37 17 -31 14 4 23 0 30 -13 13 -25 5 -32 -38 -32 -46 0 -57 -8
-66 -48 -5 -24 -13 -33 -33 -38 -15 -3 -40 -10 -56 -15 -16 -5 -30 -8 -31 -7
0 2 -9 16 -19 32 -13 20 -16 38 -11 60 3 17 6 45 5 61 -6 120 -1 320 10 370
22 107 23 125 4 192 -15 51 -25 70 -46 82 -48 28 -58 69 -66 276 -6 164 -9
190 -23 193 -9 2 -19 -3 -22 -11 -3 -8 -6 -115 -8 -238 -2 -166 -6 -231 -16
-252 -11 -22 -13 -85 -11 -310 l3 -282 -28 -88 c-17 -54 -27 -110 -27 -147 0
-37 -10 -89 -26 -137 -21 -65 -34 -86 -74 -124 -30 -27 -61 -70 -77 -105 -26
-54 -28 -69 -28 -174 1 -128 15 -175 74 -242 38 -43 83 -61 148 -57 48 3 48 3
51 -30 2 -18 0 -40 -3 -49 -5 -14 -11 -10 -26 18 -28 50 -14 0 18 -65 40 -81
111 -145 163 -145 26 0 26 1 -11 -61 -47 -81 -99 -187 -99 -204 0 -8 4 -23 9
-33 38 -76 43 -252 10 -354 -41 -125 -34 -385 13 -500 19 -48 21 -72 22 -263
0 -205 0 -212 -28 -295 -24 -71 -28 -96 -24 -160 5 -90 21 -126 68 -157 69
-46 70 -48 70 -118 0 -88 -19 -131 -62 -143 -20 -5 -105 -7 -202 -3 -170 7
-185 11 -186 49 0 18 -10 15 -37 -14 -24 -26 -26 -26 -111 -19 -47 4 -98 12
-112 17 -14 5 -70 8 -124 6 -96 -3 -99 -2 -117 22 -22 29 -39 111 -39 187 0
46 3 55 23 62 12 5 35 23 51 40 17 17 34 31 38 31 5 0 21 11 36 25 27 25 27
27 26 148 0 87 -7 156 -24 240 -22 112 -23 126 -13 287 l10 170 44 87 c40 79
44 95 44 158 -1 56 -7 85 -33 144 -37 85 -35 91 36 117 91 34 125 73 138 154
6 35 17 55 52 88 l45 44 -7 61 c-5 55 -2 70 33 161 22 56 42 117 46 137 9 46
-11 235 -36 353 -10 49 -19 128 -19 175 0 69 -7 110 -35 206 -22 76 -44 128
-59 145 -13 14 -44 57 -69 96 -46 72 -97 122 -152 148 -17 8 -40 26 -53 40
-15 18 -32 26 -55 26 -18 0 -42 6 -53 14 -11 8 -36 18 -55 23 -45 12 -69 58
-69 136 0 53 3 61 39 100 29 31 41 54 46 89 l7 46 54 -5 c30 -3 54 -3 54 0 0
14 -50 137 -93 228 -68 145 -101 175 -208 193 -28 5 -39 13 -50 39 -10 23 -22
33 -41 35 -25 3 -27 0 -30 -38 -3 -40 -4 -42 -56 -59 -28 -10 -60 -25 -70 -34
-31 -28 -64 -107 -83 -196 -10 -47 -24 -104 -30 -127 -16 -54 -8 -74 31 -74
23 0 33 -6 40 -25 5 -13 20 -41 34 -62 46 -70 57 -190 22 -238 -12 -17 -14
-17 -41 1 l-29 19 8 -25 c14 -46 11 -62 -14 -81 -22 -17 -191 -81 -198 -75 -1
2 5 25 13 52 23 76 19 115 -15 163 -21 28 -29 49 -25 62 4 11 2 26 -4 32 -6 8
-6 18 -1 27 5 8 6 89 3 181 -5 140 -3 175 10 217 31 92 16 195 -28 206 -14 4
-25 13 -25 20 0 8 -7 16 -15 20 -12 4 -15 41 -17 213 -3 200 -4 208 -23 208
-19 0 -20 -8 -25 -205 -3 -113 -9 -211 -13 -217 -15 -23 -27 -13 -27 21 0 40
-11 50 -46 42 l-25 -7 3 -152 3 -152 38 1 37 1 0 -119 c0 -72 -5 -138 -14
-166 -27 -94 -38 -139 -50 -212 -11 -65 -56 -203 -128 -390 -11 -30 -46 -109
-76 -174 -66 -141 -74 -194 -43 -258 17 -36 31 -49 78 -71 32 -15 71 -38 86
-52 l29 -26 -37 -40 c-44 -49 -40 -61 8 -25 54 42 77 32 77 -33 0 -68 51 -154
104 -176 17 -7 46 -10 65 -7 30 4 33 3 27 -14 -13 -31 -136 -531 -152 -618 -9
-45 -36 -133 -62 -196 l-46 -115 3 -120 c5 -179 5 -178 -12 -346 -15 -155 -25
-192 -68 -248 -12 -14 -19 -40 -19 -65 0 -22 -7 -81 -15 -131 -9 -49 -16 -126
-16 -170 l-1 -80 51 -47 c44 -40 50 -51 42 -67 -21 -38 -70 -69 -121 -76 -31
-4 -62 -16 -79 -31 l-29 -24 -34 34 c-22 22 -52 39 -81 47 -55 13 -127 73
-169 138 -36 58 -35 75 7 126 l34 42 -10 154 c-7 113 -16 174 -34 229 -48 152
-57 358 -19 431 27 53 29 150 5 263 -12 55 -21 111 -21 126 0 14 -9 63 -21
109 -22 89 -18 111 25 111 11 1 37 7 56 14 19 8 57 22 84 33 74 28 86 57 86
213 0 148 -20 325 -56 503 -24 113 -25 130 -12 145 25 28 29 53 17 91 -26 79
-102 236 -138 284 -21 29 -48 71 -59 93 -30 60 -128 134 -178 134 -17 0 -51
14 -142 58 -60 29 -57 42 12 49 34 4 53 1 81 -16 35 -20 35 -20 25 0 -16 29
-57 41 -125 36 -33 -2 -66 -2 -72 0 -14 5 -18 88 -7 117 8 21 24 21 24 0 0 -8
5 -12 10 -9 6 3 10 19 10 34 0 33 22 54 73 71 22 7 43 22 48 34 13 29 -11 179
-45 274 -12 37 -26 87 -30 112 l-7 45 -87 32 c-111 41 -157 47 -229 33 -68
-14 -179 -65 -197 -92 -9 -13 -11 -32 -5 -65 13 -78 10 -177 -5 -198 -13 -18
-14 -18 -25 4 -22 41 -61 184 -61 224 0 22 -11 63 -24 91 -22 44 -39 111 -110
411 -9 40 -11 64 -4 72 14 18 1 65 -34 117 -33 51 -77 167 -78 205 0 29 -46
201 -66 249 -11 25 -19 32 -41 32 -16 0 -36 -5 -45 -11z m-2128 -681 c0 -6 -7
-5 -15 2 -8 7 -15 17 -15 22 0 6 7 5 15 -2 8 -7 15 -17 15 -22z m4210 -271 c0
-20 -1 -20 -16 -5 -9 9 -13 21 -9 27 10 16 25 3 25 -22z m1800 -147 c0 -5 -2
-10 -4 -10 -3 0 -8 5 -11 10 -3 6 -1 10 4 10 6 0 11 -4 11 -10z m-5980 -95 c0
-14 -4 -25 -10 -25 -5 0 -10 11 -10 25 0 14 5 25 10 25 6 0 10 -11 10 -25z
m6040 -59 c-20 -25 -30 -19 -30 21 l0 37 22 -21 c18 -18 19 -24 8 -37z m-5987
-206 c3 -11 2 -20 -3 -20 -4 0 -10 9 -13 20 -3 11 -2 20 3 20 4 0 10 -9 13
-20z m2531 -151 c36 -69 66 -129 66 -132 0 -4 -14 -7 -30 -7 -53 0 -74 32 -98
155 -12 61 -22 114 -22 120 0 19 20 -13 84 -136z m-149 26 c4 -22 10 -79 14
-127 l6 -86 -37 -6 c-42 -7 -68 0 -68 20 0 10 -8 12 -30 8 -35 -8 -36 -6 -16
105 10 57 18 79 35 90 12 9 34 26 49 38 31 24 35 20 47 -42z m-2465 -190 c6
-4 4 -15 -6 -30 -13 -20 -14 -35 -5 -94 6 -38 11 -91 10 -118 l-1 -48 -18 40
c-37 81 -67 315 -43 339 4 4 17 -13 30 -38 12 -24 27 -47 33 -51z m256 6 c13
-82 10 -115 -7 -119 -31 -6 -62 136 -39 178 12 22 13 23 26 5 7 -10 16 -38 20
-64z m3948 -29 c-5 -33 -2 -47 11 -62 16 -17 16 -20 2 -26 -8 -3 -28 -4 -44
-2 -24 3 -28 7 -26 31 1 16 9 54 18 85 16 53 18 55 31 37 10 -14 13 -32 8 -63z
m936 18 c13 -9 13 -10 0 -10 -8 0 -22 5 -30 10 -13 9 -13 10 0 10 8 0 22 -5
30 -10z m1030 -115 c0 -16 -27 -32 -37 -22 -3 4 -3 13 0 22 8 20 37 20 37 0z
m575 -16 c4 -6 5 -13 2 -16 -8 -7 -47 7 -47 18 0 13 37 11 45 -2z m-641 -26
c8 -21 -10 -41 -24 -27 -11 11 -3 44 10 44 4 0 11 -8 14 -17z m-5846 -55 c-2
-18 -7 -33 -13 -33 -5 0 -11 15 -13 33 -3 24 1 32 13 32 12 0 16 -8 13 -32z
m3857 -30 c9 -47 -11 -125 -46 -179 -16 -25 -29 -54 -29 -65 0 -10 -6 -39 -14
-64 -7 -25 -17 -73 -21 -107 -4 -35 -10 -63 -15 -63 -17 0 -52 106 -57 174 -5
65 -2 76 24 126 34 63 135 209 145 210 4 0 10 -15 13 -32z m-7084 -198 c18
-10 27 -40 12 -40 -10 0 -43 32 -43 42 0 11 7 10 31 -2z m12254 -240 c-3 -5
-10 -10 -16 -10 -5 0 -9 5 -9 10 0 6 7 10 16 10 8 0 12 -4 9 -10z m-585 -276
c0 -14 -3 -14 -15 -4 -8 7 -15 14 -15 16 0 2 7 4 15 4 8 0 15 -7 15 -16z
m-7380 -73 c-12 -23 -30 -28 -30 -9 0 16 34 52 38 39 2 -5 -2 -19 -8 -30z
m7630 -26 c-16 -19 -30 -19 -30 0 0 17 33 38 38 24 2 -5 -2 -16 -8 -24z
m-5576 -38 c16 -23 46 -178 46 -231 l-1 -31 -19 23 c-11 13 -25 43 -30 65 -6
23 -22 70 -36 105 -13 34 -24 69 -24 77 0 24 47 18 64 -8z m1926 -33 c13 -32
13 -74 1 -74 -9 0 -51 78 -51 93 0 4 9 7 20 7 13 0 24 -10 30 -26z m3811 -22
c-5 -9 -19 -26 -30 -36 -26 -24 -29 -2 -5 32 19 27 50 31 35 4z m-2161 -72 c0
-5 -2 -10 -4 -10 -3 0 -8 5 -11 10 -3 6 -1 10 4 10 6 0 11 -4 11 -10z m88
-115 c7 -21 11 -46 9 -54 -5 -22 -47 47 -47 77 0 36 23 21 38 -23z m-1708 -2
c0 -16 -25 -73 -32 -73 -11 0 -10 38 2 61 10 18 30 26 30 12z m1780 -174 c0
-6 -4 -7 -10 -4 -5 3 -10 11 -10 16 0 6 5 7 10 4 6 -3 10 -11 10 -16z m-3646
-15 c7 -19 -10 -44 -30 -44 -14 0 -20 41 -7 53 12 12 31 7 37 -9z m1864 -87
c4 -30 -32 -117 -47 -117 -14 0 -14 23 -1 36 6 6 13 34 17 63 6 54 25 66 31
18z m1912 -208 c0 -19 -34 -44 -49 -35 -8 5 -5 42 5 75 6 19 44 -15 44 -40z
m-4336 -189 c18 -96 37 -165 56 -205 50 -105 109 -342 128 -510 6 -53 18 -98
36 -134 20 -38 31 -81 38 -148 10 -82 14 -96 35 -111 65 -44 66 -48 60 -138
-6 -85 -20 -129 -38 -119 -5 4 -9 -5 -9 -19 0 -55 -119 -106 -135 -57 -7 22
-65 39 -145 41 -88 3 -95 1 -105 -22 -6 -13 -17 -23 -25 -23 -12 0 -20 34 -38
155 -25 174 -24 222 8 248 32 26 45 184 30 367 -11 121 -10 156 4 250 9 61 25
204 36 319 19 195 28 261 35 254 2 -2 15 -68 29 -148z m-2139 -395 c26 -171
49 -361 52 -424 l6 -114 63 -70 c93 -103 94 -106 94 -306 l0 -171 -30 0 c-17
0 -45 7 -62 16 -29 15 -33 15 -62 -2 -26 -16 -55 -19 -181 -20 -84 -1 -155 3
-162 8 -12 9 -84 6 -184 -7 l-47 -7 -15 69 c-29 125 -31 169 -12 218 18 49 47
75 83 75 12 0 34 11 47 24 21 21 23 29 15 52 -7 18 -7 30 0 40 6 7 20 66 30
131 19 114 134 519 247 871 l48 147 11 -110 c7 -61 33 -250 59 -420z m4017
-95 c38 -82 58 -173 65 -292 5 -95 4 -113 -17 -167 -13 -36 -20 -74 -18 -92 4
-24 0 -34 -19 -46 -50 -33 -18 -74 75 -93 28 -7 52 -16 52 -22 0 -6 -6 -36
-14 -67 -8 -31 -20 -92 -26 -136 -16 -102 -31 -129 -71 -121 -17 3 -143 13
-282 22 -158 10 -255 20 -259 27 -12 20 -30 140 -26 177 2 27 9 36 28 42 14 4
45 13 70 20 43 13 45 15 48 55 2 23 -2 51 -8 62 -8 15 -7 26 1 39 9 15 8 35
-6 91 -10 42 -15 87 -11 109 6 40 129 389 152 435 8 15 41 67 72 115 31 48 80
131 107 184 l50 97 6 -192 c5 -179 7 -196 31 -247z m1892 -113 c31 -81 65
-187 76 -235 22 -91 49 -172 77 -225 9 -18 20 -71 24 -122 3 -49 10 -112 14
-140 7 -42 6 -48 -6 -39 -8 6 -21 12 -29 13 -60 6 -74 5 -77 -6 -3 -9 6 -13
29 -13 60 0 78 -10 78 -41 0 -15 -5 -31 -11 -34 -6 -4 -7 -19 -4 -36 6 -28 5
-29 -29 -29 -34 0 -36 -2 -36 -31 0 -38 -24 -35 -28 4 -3 25 -5 26 -50 21 -46
-5 -48 -4 -71 33 -29 45 -39 31 -17 -22 l16 -37 -24 6 c-13 3 -31 9 -40 12
-23 9 -20 -19 4 -41 11 -10 18 -20 15 -23 -3 -3 -14 3 -24 12 -11 10 -25 15
-32 10 -21 -13 -177 -13 -195 0 -12 9 -18 40 -25 135 -11 140 -5 160 41 159
17 -1 35 3 41 9 12 12 14 82 4 188 -5 45 -3 140 3 220 6 77 16 199 21 270 9
121 12 137 54 235 25 58 48 116 52 130 7 21 15 3 50 -105 23 -71 68 -196 99
-278z m2596 -456 c0 -61 3 -72 30 -106 27 -34 30 -45 30 -105 0 -124 -91 -413
-136 -430 -23 -9 -589 -2 -689 9 -58 6 -60 7 -63 37 -2 22 7 46 32 83 31 46
36 61 36 111 0 32 -7 76 -15 99 -8 22 -12 41 -8 41 3 0 -5 9 -18 19 -13 11
-22 22 -19 24 3 3 83 13 179 21 169 16 177 17 255 56 45 22 114 65 154 95 40
30 77 55 81 55 5 0 14 -7 21 -15 18 -22 28 -18 32 12 3 27 44 58 80 60 16 2
18 -7 18 -66z m-1580 -71 c0 -5 -7 -10 -16 -10 -8 0 -12 5 -9 10 3 6 10 10 16
10 5 0 9 -4 9 -10z m-9240 -62 c0 -18 -11 -80 -25 -138 -14 -58 -25 -115 -25
-127 0 -23 -2 -23 -130 -23 l-130 0 0 44 c0 36 8 54 46 107 26 35 58 87 71
116 l24 53 85 0 84 0 0 -32z m9210 22 c0 -5 -5 -10 -11 -10 -5 0 -7 5 -4 10 3
6 8 10 11 10 2 0 4 -4 4 -10z m453 -104 c34 -20 76 -49 93 -64 l32 -27 -38
-113 c-24 -71 -48 -124 -64 -141 -14 -15 -26 -35 -26 -45 0 -17 -6 -18 -77
-12 -107 10 -114 16 -62 54 24 18 46 32 50 32 4 0 10 9 14 20 3 11 22 45 41
77 19 31 34 63 34 70 0 20 -18 15 -42 -12 -12 -14 -32 -25 -44 -25 -30 0 -57
28 -48 49 4 9 7 29 7 44 0 20 9 35 33 54 41 30 44 48 8 39 -28 -7 -28 -2 -1
64 l9 25 10 -26 c6 -18 31 -40 71 -63z m-813 -46 c0 -5 -2 -10 -4 -10 -3 0 -8
5 -11 10 -3 6 -1 10 4 10 6 0 11 -4 11 -10z m235 -120 c3 -5 1 -10 -4 -10 -6
0 -11 5 -11 10 0 6 2 10 4 10 3 0 8 -4 11 -10z m-614 -47 c37 -22 43 -40 16
-45 -17 -3 -26 3 -38 29 -19 38 -17 39 22 16z m-87 -59 c20 -19 20 -34 1 -34
-12 0 -35 28 -35 44 0 11 19 6 34 -10z m143 -20 c-3 -3 -12 -4 -19 -1 -8 3 -5
6 6 6 11 1 17 -2 13 -5z"/>
<path d="M6355 930 c3 -5 11 -10 16 -10 6 0 7 5 4 10 -3 6 -11 10 -16 10 -6 0
-7 -4 -4 -10z"/>
<path d="M3142 4580 c0 -14 2 -19 5 -12 2 6 2 18 0 25 -3 6 -5 1 -5 -13z"/>
<path d="M12716 3931 c-4 -7 -5 -15 -2 -18 9 -9 19 4 14 18 -4 11 -6 11 -12 0z"/>
</g>
</svg>
