<?xml version="1.0" standalone="no"?>
<!DOCTYPE svg PUBLIC "-//W3C//DTD SVG 20010904//EN"
 "http://www.w3.org/TR/2001/REC-SVG-20010904/DTD/svg10.dtd">
<svg version="1.0" xmlns="http://www.w3.org/2000/svg"
 width="1280.000000pt" height="757.000000pt" viewBox="0 0 1280.000000 757.000000"
 preserveAspectRatio="xMidYMid meet">
<metadata>
Created by potrace 1.15, written by Peter Selinger 2001-2017
</metadata>
<g transform="translate(0.000000,757.000000) scale(0.100000,-0.100000)"
fill="#000000" stroke="none">
<path d="M5665 7525 c3 -27 11 -115 19 -195 41 -398 64 -797 73 -1249 5 -302
4 -343 -9 -335 -44 27 -98 72 -108 89 -6 11 -40 45 -75 75 -35 30 -64 62 -64
71 -1 9 -8 22 -16 29 -9 7 -15 29 -15 55 0 26 -6 47 -16 55 -8 8 -50 15 -92
18 -73 4 -80 3 -110 -23 -32 -27 -32 -28 -27 -94 3 -36 8 -89 11 -118 l6 -52
-47 -22 c-26 -12 -49 -28 -52 -36 -3 -8 -31 -27 -62 -43 -83 -43 -97 -58 -134
-135 -29 -60 -35 -84 -40 -173 -3 -56 -2 -126 3 -155 4 -29 11 -92 14 -142 l6
-90 -52 3 c-51 3 -55 2 -110 -48 l-58 -52 0 -109 0 -109 -84 0 c-65 0 -85 3
-90 15 -3 8 -12 15 -21 15 -11 0 -15 11 -15 44 0 25 -4 48 -10 51 -5 3 -10 42
-10 85 0 69 -3 81 -20 90 -19 10 -20 21 -20 158 0 301 -22 772 -75 1632 -38
606 -45 704 -51 697 -2 -2 11 -246 30 -543 58 -894 86 -1486 86 -1804 0 -129
-1 -138 -20 -143 -18 -5 -20 -14 -20 -84 0 -66 -3 -81 -20 -96 -12 -10 -20
-29 -20 -48 0 -20 -8 -38 -22 -50 -20 -16 -41 -18 -164 -19 l-140 0 -118 -170
-118 -170 -89 0 -89 0 0 -150 c0 -93 4 -150 10 -150 6 0 10 -45 10 -116 l0
-117 455 5 456 5 14 -35 c8 -19 15 -36 15 -38 0 -2 -20 -4 -45 -4 -50 0 -56
-12 -25 -45 l21 -22 -128 -6 c-70 -4 -188 -7 -260 -7 l-133 0 0 -40 0 -40
-263 0 c-278 0 -287 -1 -287 -47 0 -19 -5 -23 -31 -23 -26 0 -54 22 -181 142
l-149 142 -347 4 -347 3 -75 -65 -75 -66 -121 0 c-112 0 -126 2 -165 25 -68
38 -111 33 -173 -24 l-29 -26 7 700 c15 1700 17 1808 37 1834 26 33 24 66 -9
135 l-27 58 -33 -62 c-37 -72 -39 -98 -13 -132 11 -13 16 -29 13 -34 -4 -6
-36 -20 -72 -33 -36 -13 -157 -71 -270 -129 -286 -147 -316 -161 -485 -231
-354 -146 -528 -250 -652 -388 -43 -48 -115 -126 -159 -173 l-82 -85 -7 -76
c-6 -72 -5 -78 16 -92 13 -10 33 -14 49 -11 24 5 31 0 61 -48 48 -75 106 -136
153 -160 38 -19 39 -21 20 -34 -40 -28 -41 -29 -32 -108 27 -252 27 -226 -1
-259 -35 -41 -42 -131 -13 -167 l20 -25 22 20 c13 11 37 53 56 93 33 72 33 72
73 72 92 0 242 67 325 145 28 26 32 27 95 19 100 -12 128 -9 233 24 122 40
262 68 413 83 88 9 133 18 167 36 26 12 50 23 53 23 3 0 5 -223 5 -495 l0
-495 -39 0 c-27 0 -79 -18 -158 -54 l-118 -54 -3 -41 -3 -41 48 0 47 0 -62
-63 -63 -63 -209 -29 c-116 -16 -216 -32 -222 -36 -10 -6 -7 -49 10 -186 26
-210 27 -232 7 -260 -14 -20 -10 -59 50 -445 l65 -423 53 -48 52 -48 120 6
c66 3 134 8 151 11 30 6 31 4 38 -36 7 -46 18 -31 -239 -363 l-76 -97 45 0 44
0 119 150 c65 82 121 149 124 150 4 0 13 -39 20 -87 9 -61 19 -93 33 -107 15
-15 19 -31 18 -75 -1 -31 4 -99 12 -151 9 -65 10 -99 3 -108 -15 -19 -1 -26
51 -25 42 1 43 1 15 -6 -17 -5 -46 -17 -65 -28 -36 -21 -84 -96 -72 -114 7
-11 69 -8 152 7 28 5 32 4 32 -15 0 -12 6 -21 16 -21 26 0 13 -52 -17 -69 -35
-20 -75 -7 -94 29 -13 26 -21 30 -55 30 -47 0 -49 -9 -17 -65 40 -70 134 -104
203 -73 25 12 29 10 78 -44 50 -55 52 -56 74 -41 32 22 47 0 25 -34 -19 -28
-25 -20 73 -89 l79 -54 26 31 c22 27 27 29 32 15 4 -10 2 -26 -3 -36 -6 -10
-10 -21 -10 -24 0 -5 174 -96 184 -96 2 0 9 14 16 30 18 43 33 38 25 -8 l-6
-39 93 -41 93 -41 17 32 c13 26 18 29 23 15 4 -9 1 -26 -5 -38 -7 -12 -8 -26
-3 -30 10 -10 171 -80 183 -80 5 0 12 9 15 20 3 11 11 20 17 20 6 0 7 -7 3
-17 -18 -45 -17 -50 22 -66 21 -8 64 -27 96 -41 l59 -26 11 30 c6 17 16 28 22
26 10 -4 10 -5 1 -46 -6 -23 -1 -28 81 -63 49 -20 91 -37 95 -37 4 0 16 16 26
36 15 30 20 33 30 21 9 -10 10 -22 2 -41 -7 -20 -7 -28 3 -31 6 -3 52 -18 100
-34 l88 -30 10 27 c5 15 12 33 14 40 8 23 45 -10 45 -40 l0 -28 105 0 105 0 0
30 c0 20 5 30 15 30 10 0 15 -11 15 -35 l0 -35 105 0 105 0 0 36 c0 45 24 42
28 -4 l3 -32 105 0 104 0 0 36 c0 28 3 35 18 32 11 -2 18 -14 20 -36 l3 -32
105 0 104 0 0 35 c0 24 5 35 15 35 10 0 15 -11 15 -35 l0 -35 105 0 105 0 0
35 c0 19 5 35 10 35 6 0 10 -13 10 -30 l0 -30 105 0 105 0 0 30 c0 17 5 30 10
30 6 0 10 -13 10 -30 l0 -30 105 0 105 0 0 35 c0 26 3 33 15 29 9 -4 15 -19
15 -35 l0 -29 105 0 105 0 0 36 c0 45 24 42 28 -4 l3 -32 105 0 104 0 0 35 c0
19 5 35 10 35 6 0 10 -16 10 -35 l0 -35 105 0 105 0 0 40 c0 30 3 38 14 34 8
-3 16 -20 18 -37 l3 -32 100 0 100 0 5 37 c6 44 26 39 32 -7 l3 -30 105 0 105
0 3 33 c4 41 26 38 27 -4 l0 -29 108 -3 107 -3 0 36 c0 22 4 34 10 30 6 -3 10
-19 10 -36 l0 -29 105 0 105 0 0 36 c0 21 4 33 10 29 6 -3 10 -19 10 -36 l0
-29 105 0 105 0 0 40 c0 31 3 38 15 34 9 -4 15 -19 15 -35 l0 -29 105 0 105 0
0 35 c0 26 3 33 15 29 9 -4 15 -19 15 -35 l0 -29 105 0 105 0 0 36 c0 45 24
42 28 -4 l3 -32 105 0 104 0 0 35 c0 24 5 35 15 35 10 0 15 -11 15 -35 l0 -35
110 0 110 0 0 35 c0 24 5 35 15 35 10 0 15 -11 15 -35 l0 -35 105 0 105 0 0
40 c0 30 3 38 14 34 8 -3 16 -20 18 -37 l3 -32 103 -3 102 -3 0 36 c0 19 5 35
10 35 6 0 10 -16 10 -35 l0 -35 105 0 105 0 0 35 c0 44 18 46 22 3 l3 -33 103
-3 102 -3 0 36 c0 46 27 49 32 3 l3 -33 103 -3 102 -3 0 36 c0 46 27 49 32 2
l3 -32 103 -3 102 -3 0 40 c0 32 3 39 15 35 9 -4 15 -19 15 -35 l0 -29 105 0
105 0 0 35 c0 26 3 33 15 29 9 -4 15 -19 15 -35 l0 -29 105 0 105 0 0 35 c0
26 3 33 15 29 9 -4 15 -19 15 -35 l0 -29 105 0 105 0 0 36 c0 45 24 42 28 -4
l3 -32 105 0 104 0 0 36 c0 45 24 42 28 -4 l3 -32 105 0 104 0 0 35 c0 19 5
35 10 35 6 0 10 -7 10 -15 0 -30 27 -26 118 16 l91 41 -14 29 c-18 33 -18 39
-5 39 6 0 15 -11 20 -25 5 -14 14 -25 21 -25 6 0 51 19 99 41 l89 41 -20 39
-19 39 20 0 c12 0 25 -10 32 -25 6 -14 16 -24 22 -21 75 30 176 81 176 88 0 5
-7 22 -15 38 -15 28 -14 30 4 30 11 0 26 -10 32 -22 6 -13 13 -24 14 -26 1 -1
39 15 84 37 46 22 88 42 94 44 9 3 7 14 -5 40 -17 36 -17 37 1 37 12 0 21 -9
25 -25 4 -14 10 -25 15 -25 7 0 181 78 189 85 2 2 -4 17 -12 34 -19 35 -19 41
-6 41 5 0 16 -13 25 -30 l15 -29 93 45 c90 44 97 51 82 87 -11 28 28 21 45 -8
l15 -24 87 61 87 61 -19 27 c-18 25 -18 29 -3 34 9 4 25 -2 37 -14 l22 -20 74
75 74 74 -24 26 c-28 30 -20 43 16 26 15 -6 28 -10 29 -9 7 11 95 177 95 181
0 2 -14 10 -31 17 -19 8 -28 18 -25 27 4 8 6 17 6 19 0 2 11 4 24 4 14 0 27 3
29 8 2 4 -2 51 -11 104 -14 95 -15 98 -41 98 -22 0 -26 5 -28 29 -1 18 5 35
18 47 19 17 19 18 -3 41 l-21 23 96 0 c122 0 128 6 116 125 -4 44 -8 93 -8
108 -1 16 -11 38 -26 51 -29 27 -31 36 -10 36 9 0 61 -69 120 -160 101 -155
106 -160 139 -160 l34 0 -124 185 c-68 101 -124 193 -124 204 0 12 14 43 30
69 34 56 36 71 16 111 -17 32 -81 91 -99 91 -7 0 -40 13 -74 30 -71 33 -70 20
-14 143 17 38 29 72 26 77 -2 4 -24 10 -47 14 -24 4 -71 11 -105 17 l-61 11
-123 139 c-132 150 -174 190 -286 264 -40 26 -73 53 -73 60 0 24 -36 45 -76
44 -47 -2 -195 60 -287 119 -124 82 -208 103 -313 82 -90 -19 -129 -42 -148
-91 -24 -60 -46 -157 -46 -207 0 -26 -4 -41 -10 -37 -5 3 -10 23 -10 43 -1 31
-8 43 -45 75 -68 58 -125 87 -171 87 -28 0 -44 -5 -48 -15 -3 -8 -10 -15 -16
-15 -23 0 -423 236 -428 253 -2 10 -14 17 -28 17 -40 0 -74 21 -74 47 0 20 -5
23 -34 23 -51 0 -63 8 -88 56 -23 48 -31 52 -54 29 -14 -13 -19 -13 -44 0 -16
8 -36 15 -45 15 -8 0 -15 8 -15 18 0 10 -13 22 -32 30 -18 7 -57 24 -86 38
-29 13 -70 24 -92 24 -29 0 -40 4 -40 15 0 13 -26 15 -176 15 l-175 0 -25 53
c-14 28 -29 59 -34 67 -25 43 -70 155 -70 176 0 12 -4 26 -10 29 -15 10 -12
35 5 35 27 0 16 15 -40 50 -30 19 -55 38 -55 41 0 4 16 10 35 13 26 5 35 12
33 24 -2 12 5 18 27 20 17 2 39 12 50 22 19 18 59 20 835 29 448 5 818 7 823
4 4 -3 58 -6 120 -8 62 -1 142 -6 180 -10 l67 -8 0 61 c0 33 -3 63 -7 65 -5 2
-71 -2 -148 -9 -91 -9 -143 -10 -149 -4 -13 13 -49 13 -63 -1 -8 -8 -168 -8
-574 0 -310 6 -610 11 -666 11 l-103 0 0 25 c0 28 -12 32 -30 10 -11 -13 -10
-14 4 -9 9 3 16 2 16 -4 0 -9 -22 -9 -248 7 -56 3 -109 3 -117 -2 -10 -5 -15
-3 -15 7 0 8 -4 18 -10 21 -6 3 -7 -1 -4 -9 5 -14 -4 -16 -60 -16 -36 0 -66 4
-66 9 0 15 37 23 73 16 23 -4 28 -3 16 4 -8 5 -39 11 -67 12 -66 3 -87 23 -78
73 5 28 2 40 -15 57 -26 26 -91 55 -141 62 -37 6 -37 5 -72 -59 -21 -37 -36
-79 -36 -97 0 -31 -2 -33 -32 -31 -18 1 -134 30 -258 65 -201 57 -237 64 -341
69 l-116 5 -27 33 c-15 17 -37 32 -48 32 -13 0 -92 69 -215 188 -106 103 -205
193 -218 200 -21 11 -52 51 -47 60 1 1 2 20 2 43 0 36 -2 40 -22 37 -20 -3
-23 -10 -26 -55 l-3 -53 -278 0 -278 0 -22 78 c-12 42 -29 101 -37 130 -15 49
-17 52 -49 52 -20 0 -35 6 -39 15 -3 9 -18 15 -39 15 -19 0 -40 -7 -47 -15
-10 -12 -42 -15 -165 -15 -83 0 -193 -3 -243 -6 l-92 -7 0 -87 0 -87 -35 -24
c-32 -22 -35 -28 -35 -76 0 -28 -4 -55 -10 -58 -6 -4 -10 12 -10 40 0 39 -4
48 -20 52 -20 5 -20 12 -18 162 l3 156 30 3 c45 5 82 37 87 74 3 18 2 62 -2
99 -7 64 -10 69 -64 123 l-56 56 0 198 c0 440 -61 1403 -100 1585 l-9 42 4
-50z m-3865 -1236 c0 -14 -9 -34 -20 -44 -19 -17 -21 -17 -40 0 -26 23 -25 48
2 104 l22 45 18 -39 c9 -22 18 -52 18 -66z m3719 -381 c14 -33 18 -54 11 -58
-6 -4 0 -16 15 -30 36 -34 66 -88 54 -96 -6 -3 4 -18 23 -35 43 -37 31 -36
-39 1 -31 17 -64 30 -75 30 -10 0 -39 19 -63 42 l-44 42 24 28 c13 15 26 47
30 70 7 39 18 57 36 58 4 0 16 -23 28 -52z m209 -518 l32 0 0 -154 c0 -145 -1
-154 -20 -159 -18 -4 -20 -14 -22 -79 l-1 -73 -6 60 -6 60 -50 3 -51 3 3 172
c2 95 5 177 8 184 3 8 14 8 42 -3 21 -7 53 -13 71 -14z m732 -50 c0 -5 -7 -10
-16 -10 -8 0 -12 5 -9 10 3 6 10 10 16 10 5 0 9 -4 9 -10z m770 -199 c0 -6 -4
-13 -10 -16 -5 -3 -10 1 -10 9 0 9 5 16 10 16 6 0 10 -4 10 -9z m-20 -131 c0
-22 20 -26 38 -8 9 9 12 9 12 0 0 -7 8 -12 18 -12 9 0 96 -77 192 -170 l175
-169 -87 -1 -86 0 -52 60 c-42 49 -59 61 -91 66 l-39 7 0 78 0 79 -120 0 -120
0 0 -59 0 -60 -130 -3 c-97 -2 -131 0 -135 10 -2 7 -22 12 -44 12 l-40 0 -25
84 c-14 46 -26 89 -26 95 0 8 82 11 280 11 273 0 280 0 280 -20z m1585 -596
c13 -5 14 -8 3 -15 -19 -13 -28 -11 -28 6 0 17 2 18 25 9z m65 -162 c0 -5 -11
-14 -25 -20 -26 -12 -33 -4 -13 16 14 14 38 16 38 4z m-608 -184 c-5 -77 -7
-86 -48 -146 -61 -88 -58 -152 8 -192 l33 -20 -185 0 -185 0 -55 -37 c-30 -20
-73 -51 -96 -70 -38 -31 -94 -45 -94 -24 0 4 47 50 105 101 96 85 128 130 93
130 -7 0 41 39 106 87 l118 86 -5 41 c-2 23 -8 50 -11 61 -7 19 0 23 91 42
143 31 130 36 125 -59z m633 -158 c4 -17 19 -42 33 -58 15 -15 35 -39 45 -54
10 -16 23 -28 31 -28 10 0 36 -39 36 -55 0 -11 -229 -5 -236 6 -3 6 -24 18
-45 27 l-39 17 47 35 c27 20 61 58 78 87 17 29 33 52 37 53 3 0 9 -14 13 -30z
m103 -247 c-32 -2 -86 -2 -120 0 -35 2 -9 3 57 3 66 0 94 -1 63 -3z m435 0
c-40 -2 -107 -2 -150 0 -43 1 -10 3 72 3 83 0 118 -2 78 -3z m2746 -1056 c13
-18 12 -19 -15 -14 -16 3 -49 9 -74 13 -61 9 -63 11 -40 41 11 14 20 39 20 55
l0 30 48 -52 c26 -29 53 -62 61 -73z m336 -897 c0 -32 -3 -35 -32 -38 -28 -3
-33 1 -39 23 -8 33 12 57 45 53 22 -3 26 -8 26 -38z m-1000 -700 c3 -5 -2 -38
-11 -73 -28 -105 -6 -122 83 -62 46 31 55 34 78 23 30 -13 34 -28 5 -21 -29 8
-33 -16 -16 -83 14 -53 14 -59 -2 -71 -18 -14 -98 -53 -111 -53 -3 0 -15 16
-25 34 -27 50 -58 77 -76 66 -12 -8 -12 -17 1 -73 18 -75 18 -76 -65 -115 -39
-19 -51 -21 -57 -10 -18 32 -70 98 -77 98 -25 -1 -29 -17 -16 -79 16 -77 11
-87 -68 -121 -41 -18 -53 -19 -59 -8 -21 37 -70 98 -79 98 -19 0 -24 -33 -12
-88 14 -66 2 -86 -69 -119 l-49 -22 -15 22 c-20 28 -20 29 15 84 52 82 72 167
68 288 -3 99 -2 105 17 106 11 1 107 4 214 8 l194 6 55 88 c53 85 65 97 77 77z
m355 -165 c15 -18 -3 -47 -25 -39 -7 3 -23 0 -35 -6 -18 -10 -20 -9 -13 2 40
64 50 70 73 43z m-3208 -106 c-5 -109 8 -180 51 -269 39 -80 141 -187 215
-224 42 -21 52 -31 52 -52 0 -25 -1 -25 -77 -22 l-78 3 -7 59 c-8 64 -18 82
-41 73 -14 -5 -37 -77 -37 -117 0 -20 -5 -21 -72 -18 l-72 3 -11 65 c-8 55
-13 65 -30 65 -16 0 -23 -12 -36 -65 l-16 -65 -69 0 -69 0 -3 30 c-7 65 -22
105 -41 105 -14 0 -21 -14 -33 -67 l-14 -68 -77 -3 -77 -3 0 33 c0 18 -4 47
-9 65 -8 28 -6 34 14 47 40 26 116 143 142 218 13 38 28 105 31 148 7 76 8 78
50 114 l44 36 137 0 137 0 -4 -91z m1255 29 c-26 -174 60 -374 208 -483 55
-40 61 -48 57 -75 -5 -34 -34 -44 -112 -38 l-45 3 -6 52 c-9 70 -15 83 -38 83
-15 0 -21 -12 -32 -65 -12 -61 -15 -65 -44 -71 -17 -3 -51 -4 -75 -2 l-45 3
-6 52 c-9 70 -15 83 -38 83 -15 0 -21 -12 -32 -65 -12 -61 -15 -65 -44 -71
-17 -3 -51 -4 -75 -2 l-45 3 -8 63 -8 63 44 52 c87 104 124 194 134 322 5 78
6 81 47 117 38 35 45 37 107 38 l66 0 -10 -62z m-2665 -37 c-2 -49 1 -114 8
-145 26 -124 124 -261 240 -331 49 -30 57 -38 53 -59 -6 -29 -19 -33 -99 -28
l-62 4 -7 53 c-3 29 -13 61 -21 71 -14 19 -14 18 -29 0 -8 -11 -18 -42 -21
-69 -8 -58 -18 -63 -102 -59 l-60 4 -7 53 c-3 29 -13 61 -21 71 -14 19 -14 19
-29 0 -8 -10 -17 -38 -20 -61 -10 -64 -16 -69 -94 -73 -66 -4 -71 -3 -71 16 0
12 -5 44 -11 72 -8 38 -15 50 -29 50 -19 0 -40 -49 -40 -92 0 -42 -10 -48 -81
-48 -62 0 -69 2 -69 20 0 10 -5 42 -11 70 -8 38 -15 50 -29 50 -19 0 -40 -49
-40 -92 0 -42 -10 -48 -80 -48 l-68 0 -7 48 c-11 79 -16 92 -36 92 -18 0 -39
-50 -39 -92 0 -43 -10 -48 -86 -48 -70 0 -74 1 -74 23 0 17 15 30 68 57 164
85 282 274 282 453 l0 54 68 36 67 36 280 1 280 0 -3 -89z m-4347 17 c-6 -57
7 -151 30 -226 6 -17 4 -21 -8 -16 -10 4 -27 -12 -54 -50 -39 -57 -53 -65 -72
-43 -6 8 -29 22 -51 32 -22 10 -40 22 -40 26 0 4 7 34 15 66 25 94 -9 100 -70
12 -23 -33 -35 -43 -52 -41 -13 2 -23 7 -23 12 0 5 -20 18 -45 29 -25 11 -45
21 -45 23 1 2 9 32 19 68 l18 65 129 52 c107 43 140 52 192 53 l64 0 -7 -62z
m1337 -17 c-5 -100 10 -173 56 -263 34 -68 122 -172 166 -195 16 -9 17 -16 9
-64 l-8 -54 -78 -3 -77 -3 0 26 c0 53 -22 115 -40 115 -18 0 -40 -61 -40 -110
0 -27 -31 -37 -102 -32 -57 4 -57 4 -64 40 -14 82 -20 97 -40 97 -15 0 -22
-12 -33 -67 -15 -75 -18 -76 -111 -68 -53 5 -55 6 -58 35 -11 133 -58 140 -77
11 l-7 -47 -77 3 c-72 3 -76 4 -76 27 0 18 9 27 46 40 165 63 293 232 321 425
l12 88 55 39 c53 38 56 39 140 39 l86 0 -3 -79z m1270 7 c-2 -40 1 -100 7
-133 14 -79 70 -191 127 -254 29 -32 40 -51 31 -51 -11 0 -19 -18 -27 -57 -7
-32 -14 -64 -16 -70 -2 -9 -26 -13 -74 -13 l-70 0 0 33 c0 50 -19 107 -36 107
-17 0 -33 -36 -41 -96 -6 -49 -12 -51 -104 -46 l-56 4 -9 61 c-8 52 -12 62
-30 65 -18 3 -23 -5 -33 -42 -6 -25 -11 -54 -11 -64 0 -24 -18 -29 -97 -24
l-63 4 0 37 c0 34 5 41 60 79 130 92 220 259 220 411 0 33 5 40 62 79 53 36
69 42 114 42 l51 0 -5 -72z m-3082 -98 c-25 -35 -20 -33 -57 -19 l-28 11 45
18 c61 26 65 25 40 -10z m540 -190 c12 -23 37 -59 57 -80 21 -24 33 -46 29
-55 -6 -17 2 -19 -110 30 l-34 14 14 38 c7 21 13 50 14 66 0 37 6 34 30 -13z
m7830 -145 c0 -12 -66 -55 -85 -55 -5 0 74 67 83 69 1 1 2 -6 2 -14z m-5060
-35 c16 -12 54 -32 84 -46 87 -40 70 -64 -44 -64 l-56 0 -10 65 c-5 36 -8 65
-6 65 2 0 17 -9 32 -20z m3724 -52 c-7 -41 -20 -48 -101 -48 -68 0 -75 14 -16
35 27 9 64 24 83 35 19 10 36 17 37 16 1 -1 0 -18 -3 -38z m-1422 -4 c-3 -25
-11 -38 -26 -43 -26 -9 -136 -2 -136 8 0 4 19 14 43 21 23 6 58 21 77 31 47
24 47 24 42 -17z m-3403 -20 c89 -23 83 -37 -20 -42 l-69 -4 0 37 c0 31 3 36
18 30 9 -3 41 -13 71 -21z m5677 -12 c-50 -3 -62 0 -52 16 3 5 25 4 52 -2 l48
-11 -48 -3z m-5386 -2 c0 -18 -7 -20 -75 -20 -41 0 -75 4 -75 9 0 7 72 22 138
30 6 0 12 -8 12 -19z m5655 10 c-3 -5 -21 -9 -38 -9 l-32 1 30 8 c43 11 47 11
40 0z m-4469 -27 c-8 -8 -136 -4 -150 5 -6 4 25 9 69 12 72 5 98 -1 81 -17z
m1639 16 c30 -1 34 -3 17 -7 -33 -10 -132 -2 -132 10 0 7 14 8 38 4 20 -3 55
-6 77 -7z m1454 -5 c2 -2 -28 -4 -67 -4 -39 0 -74 5 -77 10 -6 9 133 3 144 -6z
m-5709 -3 c0 -16 -41 -20 -78 -6 l-37 14 58 0 c31 1 57 -3 57 -8z"/>
</g>
</svg>
